<mxfile host="app.diagrams.net" agent="Mozilla/5.0 (Macintosh; Intel Mac OS X 10_15_7) AppleWebKit/537.36 (KHTML, like Gecko) Chrome/131.0.0.0 Safari/537.36 Edg/131.0.0.0" version="26.0.10" pages="3">
  <diagram name="无向有权图" id="2CPMYADCAzpdW4Osq7Xu">
    <mxGraphModel dx="599" dy="384" grid="1" gridSize="10" guides="1" tooltips="1" connect="1" arrows="1" fold="1" page="1" pageScale="1" pageWidth="2000" pageHeight="2000" math="1" shadow="0">
      <root>
        <mxCell id="0" />
        <mxCell id="1" parent="0" />
        <mxCell id="bKcq7eycPMd2bR1pPH9i-1" value="" style="rounded=0;whiteSpace=wrap;html=1;fontFamily=Helvetica;fontSize=11;fontColor=default;labelBackgroundColor=default;fillColor=none;strokeColor=none;" vertex="1" parent="1">
          <mxGeometry x="121" y="139" width="200" height="192" as="geometry" />
        </mxCell>
        <mxCell id="G8u03UolxjyJn5eYtBwg-7" style="rounded=0;orthogonalLoop=1;jettySize=auto;html=1;exitX=0;exitY=1;exitDx=0;exitDy=0;endArrow=none;startFill=0;" edge="1" parent="1" source="G8u03UolxjyJn5eYtBwg-1" target="G8u03UolxjyJn5eYtBwg-4">
          <mxGeometry relative="1" as="geometry" />
        </mxCell>
        <mxCell id="G8u03UolxjyJn5eYtBwg-14" value="&lt;font style=&quot;font-size: 15px;&quot;&gt;10&lt;/font&gt;" style="edgeLabel;html=1;align=center;verticalAlign=middle;resizable=0;points=[];fontFamily=Helvetica;fontSize=11;fontColor=default;labelBackgroundColor=default;" vertex="1" connectable="0" parent="G8u03UolxjyJn5eYtBwg-7">
          <mxGeometry x="-0.3094" y="-3" relative="1" as="geometry">
            <mxPoint x="-8" y="13" as="offset" />
          </mxGeometry>
        </mxCell>
        <mxCell id="G8u03UolxjyJn5eYtBwg-9" style="edgeStyle=none;shape=connector;rounded=0;orthogonalLoop=1;jettySize=auto;html=1;exitX=1;exitY=1;exitDx=0;exitDy=0;entryX=0;entryY=0;entryDx=0;entryDy=0;strokeColor=default;align=center;verticalAlign=middle;fontFamily=Helvetica;fontSize=11;fontColor=default;labelBackgroundColor=default;startFill=0;endArrow=none;" edge="1" parent="1" source="G8u03UolxjyJn5eYtBwg-1" target="G8u03UolxjyJn5eYtBwg-6">
          <mxGeometry relative="1" as="geometry" />
        </mxCell>
        <mxCell id="G8u03UolxjyJn5eYtBwg-16" value="&lt;font style=&quot;font-size: 15px;&quot;&gt;10&lt;/font&gt;" style="edgeLabel;html=1;align=center;verticalAlign=middle;resizable=0;points=[];fontFamily=Helvetica;fontSize=11;fontColor=default;labelBackgroundColor=default;" vertex="1" connectable="0" parent="G8u03UolxjyJn5eYtBwg-9">
          <mxGeometry y="-1" relative="1" as="geometry">
            <mxPoint y="2" as="offset" />
          </mxGeometry>
        </mxCell>
        <mxCell id="G8u03UolxjyJn5eYtBwg-11" style="edgeStyle=none;shape=connector;rounded=0;orthogonalLoop=1;jettySize=auto;html=1;exitX=0.5;exitY=1;exitDx=0;exitDy=0;strokeColor=default;align=center;verticalAlign=middle;fontFamily=Helvetica;fontSize=11;fontColor=default;labelBackgroundColor=default;startFill=0;endArrow=none;" edge="1" parent="1" source="G8u03UolxjyJn5eYtBwg-1" target="G8u03UolxjyJn5eYtBwg-5">
          <mxGeometry relative="1" as="geometry" />
        </mxCell>
        <mxCell id="G8u03UolxjyJn5eYtBwg-15" value="&lt;font style=&quot;font-size: 15px;&quot;&gt;10&lt;/font&gt;" style="edgeLabel;html=1;align=center;verticalAlign=middle;resizable=0;points=[];fontFamily=Helvetica;fontSize=11;fontColor=default;labelBackgroundColor=default;" vertex="1" connectable="0" parent="G8u03UolxjyJn5eYtBwg-11">
          <mxGeometry x="-0.5333" y="3" relative="1" as="geometry">
            <mxPoint x="-6" y="-5" as="offset" />
          </mxGeometry>
        </mxCell>
        <mxCell id="G8u03UolxjyJn5eYtBwg-1" value="&lt;font style=&quot;font-size: 17px;&quot;&gt;$$v_1$$&lt;/font&gt;" style="ellipse;whiteSpace=wrap;html=1;aspect=fixed;" vertex="1" parent="1">
          <mxGeometry x="200" y="140" width="40" height="40" as="geometry" />
        </mxCell>
        <mxCell id="G8u03UolxjyJn5eYtBwg-10" style="edgeStyle=none;shape=connector;rounded=0;orthogonalLoop=1;jettySize=auto;html=1;exitX=1;exitY=0.5;exitDx=0;exitDy=0;strokeColor=default;align=center;verticalAlign=middle;fontFamily=Helvetica;fontSize=11;fontColor=default;labelBackgroundColor=default;startFill=0;endArrow=none;" edge="1" parent="1" source="G8u03UolxjyJn5eYtBwg-4" target="G8u03UolxjyJn5eYtBwg-6">
          <mxGeometry relative="1" as="geometry" />
        </mxCell>
        <mxCell id="G8u03UolxjyJn5eYtBwg-17" value="&lt;font style=&quot;font-size: 15px;&quot;&gt;10&lt;/font&gt;" style="edgeLabel;html=1;align=center;verticalAlign=middle;resizable=0;points=[];fontFamily=Helvetica;fontSize=11;fontColor=default;labelBackgroundColor=default;" vertex="1" connectable="0" parent="G8u03UolxjyJn5eYtBwg-10">
          <mxGeometry x="-0.4667" y="-1" relative="1" as="geometry">
            <mxPoint x="57" as="offset" />
          </mxGeometry>
        </mxCell>
        <mxCell id="G8u03UolxjyJn5eYtBwg-13" style="edgeStyle=none;shape=connector;rounded=0;orthogonalLoop=1;jettySize=auto;html=1;exitX=1;exitY=1;exitDx=0;exitDy=0;entryX=0;entryY=0;entryDx=0;entryDy=0;strokeColor=default;align=center;verticalAlign=middle;fontFamily=Helvetica;fontSize=11;fontColor=default;labelBackgroundColor=default;startFill=0;endArrow=none;" edge="1" parent="1" source="G8u03UolxjyJn5eYtBwg-4" target="G8u03UolxjyJn5eYtBwg-5">
          <mxGeometry relative="1" as="geometry" />
        </mxCell>
        <mxCell id="G8u03UolxjyJn5eYtBwg-18" value="&lt;font style=&quot;font-size: 15px;&quot;&gt;10&lt;/font&gt;" style="edgeLabel;html=1;align=center;verticalAlign=middle;resizable=0;points=[];fontFamily=Helvetica;fontSize=11;fontColor=default;labelBackgroundColor=default;" vertex="1" connectable="0" parent="G8u03UolxjyJn5eYtBwg-13">
          <mxGeometry x="0.0193" y="1" relative="1" as="geometry">
            <mxPoint as="offset" />
          </mxGeometry>
        </mxCell>
        <mxCell id="G8u03UolxjyJn5eYtBwg-4" value="&lt;font style=&quot;font-size: 17px;&quot;&gt;$$v_2$$&lt;/font&gt;" style="ellipse;whiteSpace=wrap;html=1;aspect=fixed;" vertex="1" parent="1">
          <mxGeometry x="121" y="219" width="40" height="40" as="geometry" />
        </mxCell>
        <mxCell id="G8u03UolxjyJn5eYtBwg-5" value="&lt;font style=&quot;font-size: 17px;&quot;&gt;$$v_3$$&lt;/font&gt;" style="ellipse;whiteSpace=wrap;html=1;aspect=fixed;" vertex="1" parent="1">
          <mxGeometry x="200" y="290" width="40" height="40" as="geometry" />
        </mxCell>
        <mxCell id="G8u03UolxjyJn5eYtBwg-6" value="&lt;font style=&quot;font-size: 17px;&quot;&gt;$$v_4$$&lt;/font&gt;" style="ellipse;whiteSpace=wrap;html=1;aspect=fixed;" vertex="1" parent="1">
          <mxGeometry x="280" y="219" width="40" height="40" as="geometry" />
        </mxCell>
      </root>
    </mxGraphModel>
  </diagram>
  <diagram id="NOI4a7q9RPXbzNSEG8eH" name="有向无权图">
    <mxGraphModel dx="582" dy="373" grid="1" gridSize="10" guides="1" tooltips="1" connect="1" arrows="1" fold="1" page="1" pageScale="1" pageWidth="2000" pageHeight="2000" math="1" shadow="0">
      <root>
        <mxCell id="0" />
        <mxCell id="1" parent="0" />
        <mxCell id="LtkcoFqL7PrpWnMgzNaw-1" value="" style="rounded=0;whiteSpace=wrap;html=1;fontFamily=Helvetica;fontSize=11;fontColor=default;labelBackgroundColor=default;fillColor=none;strokeColor=none;" vertex="1" parent="1">
          <mxGeometry x="140" y="179" width="200" height="192" as="geometry" />
        </mxCell>
        <mxCell id="77ujBu8rBLTCqAIfexXF-1" style="rounded=0;orthogonalLoop=1;jettySize=auto;html=1;exitX=0;exitY=1;exitDx=0;exitDy=0;endArrow=classic;startFill=0;endFill=1;" edge="1" parent="1" source="77ujBu8rBLTCqAIfexXF-7" target="77ujBu8rBLTCqAIfexXF-12">
          <mxGeometry relative="1" as="geometry" />
        </mxCell>
        <mxCell id="77ujBu8rBLTCqAIfexXF-3" style="edgeStyle=none;shape=connector;rounded=0;orthogonalLoop=1;jettySize=auto;html=1;exitX=1;exitY=1;exitDx=0;exitDy=0;entryX=0;entryY=0;entryDx=0;entryDy=0;strokeColor=default;align=center;verticalAlign=middle;fontFamily=Helvetica;fontSize=11;fontColor=default;labelBackgroundColor=default;startFill=0;endArrow=classic;endFill=1;" edge="1" parent="1" source="77ujBu8rBLTCqAIfexXF-7" target="77ujBu8rBLTCqAIfexXF-14">
          <mxGeometry relative="1" as="geometry" />
        </mxCell>
        <mxCell id="77ujBu8rBLTCqAIfexXF-5" style="edgeStyle=none;shape=connector;rounded=0;orthogonalLoop=1;jettySize=auto;html=1;exitX=0.5;exitY=1;exitDx=0;exitDy=0;strokeColor=default;align=center;verticalAlign=middle;fontFamily=Helvetica;fontSize=11;fontColor=default;labelBackgroundColor=default;startFill=0;endArrow=block;endFill=1;" edge="1" parent="1" source="77ujBu8rBLTCqAIfexXF-7" target="77ujBu8rBLTCqAIfexXF-13">
          <mxGeometry relative="1" as="geometry" />
        </mxCell>
        <mxCell id="77ujBu8rBLTCqAIfexXF-7" value="&lt;font style=&quot;font-size: 17px;&quot;&gt;$$v_1&#39;$$&lt;/font&gt;" style="ellipse;whiteSpace=wrap;html=1;aspect=fixed;" vertex="1" parent="1">
          <mxGeometry x="219" y="180" width="40" height="40" as="geometry" />
        </mxCell>
        <mxCell id="77ujBu8rBLTCqAIfexXF-8" style="edgeStyle=none;shape=connector;rounded=0;orthogonalLoop=1;jettySize=auto;html=1;exitX=1;exitY=0.5;exitDx=0;exitDy=0;strokeColor=default;align=center;verticalAlign=middle;fontFamily=Helvetica;fontSize=11;fontColor=default;labelBackgroundColor=default;startFill=0;endArrow=classic;endFill=1;" edge="1" parent="1" source="77ujBu8rBLTCqAIfexXF-12" target="77ujBu8rBLTCqAIfexXF-14">
          <mxGeometry relative="1" as="geometry" />
        </mxCell>
        <mxCell id="77ujBu8rBLTCqAIfexXF-10" style="edgeStyle=none;shape=connector;rounded=0;orthogonalLoop=1;jettySize=auto;html=1;exitX=1;exitY=1;exitDx=0;exitDy=0;entryX=0;entryY=0;entryDx=0;entryDy=0;strokeColor=default;align=center;verticalAlign=middle;fontFamily=Helvetica;fontSize=11;fontColor=default;labelBackgroundColor=default;startFill=0;endArrow=block;endFill=1;" edge="1" parent="1" source="77ujBu8rBLTCqAIfexXF-12" target="77ujBu8rBLTCqAIfexXF-13">
          <mxGeometry relative="1" as="geometry" />
        </mxCell>
        <mxCell id="77ujBu8rBLTCqAIfexXF-12" value="&lt;font style=&quot;font-size: 17px;&quot;&gt;$$v_2&#39;$$&lt;/font&gt;" style="ellipse;whiteSpace=wrap;html=1;aspect=fixed;" vertex="1" parent="1">
          <mxGeometry x="140" y="259" width="40" height="40" as="geometry" />
        </mxCell>
        <mxCell id="77ujBu8rBLTCqAIfexXF-13" value="&lt;font style=&quot;font-size: 17px;&quot;&gt;$$v_3&#39;$$&lt;/font&gt;" style="ellipse;whiteSpace=wrap;html=1;aspect=fixed;" vertex="1" parent="1">
          <mxGeometry x="219" y="330" width="40" height="40" as="geometry" />
        </mxCell>
        <mxCell id="77ujBu8rBLTCqAIfexXF-14" value="&lt;font style=&quot;font-size: 17px;&quot;&gt;$$v_4&#39;$$&lt;/font&gt;" style="ellipse;whiteSpace=wrap;html=1;aspect=fixed;" vertex="1" parent="1">
          <mxGeometry x="299" y="259" width="40" height="40" as="geometry" />
        </mxCell>
      </root>
    </mxGraphModel>
  </diagram>
  <diagram id="80NYfadMDYzWhAeC7J_A" name="子图匹配例子">
    <mxGraphModel dx="582" dy="373" grid="1" gridSize="10" guides="1" tooltips="1" connect="1" arrows="1" fold="1" page="1" pageScale="1" pageWidth="2000" pageHeight="2000" math="1" shadow="0">
      <root>
        <mxCell id="0" />
        <mxCell id="1" parent="0" />
        <mxCell id="K-1nV7Vjv6MAB3hoQqZB-1" style="rounded=0;orthogonalLoop=1;jettySize=auto;html=1;entryX=0.5;entryY=0;entryDx=0;entryDy=0;endArrow=none;endFill=0;exitX=0;exitY=1;exitDx=0;exitDy=0;fontFamily=Times New Roman;fontSize=18;" edge="1" parent="1" source="K-1nV7Vjv6MAB3hoQqZB-3" target="K-1nV7Vjv6MAB3hoQqZB-6">
          <mxGeometry relative="1" as="geometry">
            <mxPoint x="104" y="201" as="sourcePoint" />
          </mxGeometry>
        </mxCell>
        <mxCell id="K-1nV7Vjv6MAB3hoQqZB-2" style="edgeStyle=none;shape=connector;rounded=0;orthogonalLoop=1;jettySize=auto;html=1;exitX=1;exitY=1;exitDx=0;exitDy=0;entryX=0.5;entryY=0;entryDx=0;entryDy=0;labelBackgroundColor=default;strokeColor=default;align=center;verticalAlign=middle;fontFamily=Times New Roman;fontSize=18;fontColor=default;endArrow=none;endFill=0;" edge="1" parent="1" source="K-1nV7Vjv6MAB3hoQqZB-3" target="K-1nV7Vjv6MAB3hoQqZB-7">
          <mxGeometry relative="1" as="geometry" />
        </mxCell>
        <mxCell id="K-1nV7Vjv6MAB3hoQqZB-3" value="A" style="ellipse;whiteSpace=wrap;html=1;aspect=fixed;fontFamily=Times New Roman;fontSize=18;fillColor=none;gradientColor=none;strokeColor=#000000;" vertex="1" parent="1">
          <mxGeometry x="114" y="171" width="30" height="30" as="geometry" />
        </mxCell>
        <mxCell id="K-1nV7Vjv6MAB3hoQqZB-4" style="rounded=0;orthogonalLoop=1;jettySize=auto;html=1;exitX=1;exitY=0.5;exitDx=0;exitDy=0;endArrow=none;endFill=0;fontFamily=Times New Roman;fontSize=18;" edge="1" parent="1" source="K-1nV7Vjv6MAB3hoQqZB-6" target="K-1nV7Vjv6MAB3hoQqZB-7">
          <mxGeometry relative="1" as="geometry" />
        </mxCell>
        <mxCell id="K-1nV7Vjv6MAB3hoQqZB-5" style="rounded=0;orthogonalLoop=1;jettySize=auto;html=1;exitX=1;exitY=0;exitDx=0;exitDy=0;entryX=0.75;entryY=1;entryDx=0;entryDy=0;dashed=1;" edge="1" parent="1" source="K-1nV7Vjv6MAB3hoQqZB-6" target="K-1nV7Vjv6MAB3hoQqZB-25">
          <mxGeometry relative="1" as="geometry" />
        </mxCell>
        <mxCell id="K-1nV7Vjv6MAB3hoQqZB-6" value="B" style="ellipse;whiteSpace=wrap;html=1;aspect=fixed;fontFamily=Times New Roman;fontSize=18;fillColor=none;gradientColor=#7ea6e0;strokeColor=#000000;" vertex="1" parent="1">
          <mxGeometry x="84" y="221" width="30" height="30" as="geometry" />
        </mxCell>
        <mxCell id="K-1nV7Vjv6MAB3hoQqZB-7" value="C" style="ellipse;whiteSpace=wrap;html=1;aspect=fixed;fontFamily=Times New Roman;fontSize=18;fillColor=none;gradientColor=#7ea6e0;strokeColor=#000000;" vertex="1" parent="1">
          <mxGeometry x="144" y="221" width="30" height="30" as="geometry" />
        </mxCell>
        <mxCell id="K-1nV7Vjv6MAB3hoQqZB-8" value="&lt;font style=&quot;font-weight: normal; font-size: 18px;&quot;&gt;$$u_1$$&lt;/font&gt;" style="text;html=1;strokeColor=none;fillColor=none;align=center;verticalAlign=middle;whiteSpace=wrap;rounded=0;fontSize=18;fontFamily=Times New Roman;fontColor=default;strokeWidth=1;fontStyle=1" vertex="1" parent="1">
          <mxGeometry x="100" y="139" width="60" height="30" as="geometry" />
        </mxCell>
        <mxCell id="K-1nV7Vjv6MAB3hoQqZB-9" value="&lt;font style=&quot;font-size: 18px;&quot;&gt;&lt;b style=&quot;font-size: 18px;&quot;&gt;$$u_2$$&lt;/b&gt;&lt;/font&gt;" style="text;html=1;strokeColor=none;fillColor=none;align=center;verticalAlign=middle;whiteSpace=wrap;rounded=0;fontSize=18;fontFamily=Times New Roman;fontColor=default;strokeWidth=1;" vertex="1" parent="1">
          <mxGeometry x="40" y="210" width="60" height="30" as="geometry" />
        </mxCell>
        <mxCell id="K-1nV7Vjv6MAB3hoQqZB-10" style="edgeStyle=none;shape=connector;rounded=0;orthogonalLoop=1;jettySize=auto;html=1;exitX=0;exitY=1;exitDx=0;exitDy=0;entryX=1;entryY=0;entryDx=0;entryDy=0;labelBackgroundColor=default;strokeColor=#b85450;align=center;verticalAlign=middle;fontFamily=Times New Roman;fontSize=18;fontColor=default;endArrow=none;endFill=0;strokeWidth=1;fillColor=#f8cecc;" edge="1" parent="1" source="K-1nV7Vjv6MAB3hoQqZB-16" target="K-1nV7Vjv6MAB3hoQqZB-19">
          <mxGeometry relative="1" as="geometry" />
        </mxCell>
        <mxCell id="K-1nV7Vjv6MAB3hoQqZB-11" value="10" style="edgeLabel;html=1;align=center;verticalAlign=middle;resizable=0;points=[];" vertex="1" connectable="0" parent="K-1nV7Vjv6MAB3hoQqZB-10">
          <mxGeometry x="-0.0463" relative="1" as="geometry">
            <mxPoint as="offset" />
          </mxGeometry>
        </mxCell>
        <mxCell id="K-1nV7Vjv6MAB3hoQqZB-12" style="edgeStyle=none;shape=connector;rounded=0;orthogonalLoop=1;jettySize=auto;html=1;exitX=0.5;exitY=1;exitDx=0;exitDy=0;entryX=0.5;entryY=0;entryDx=0;entryDy=0;labelBackgroundColor=default;strokeColor=#b85450;align=center;verticalAlign=middle;fontFamily=Times New Roman;fontSize=18;fontColor=default;endArrow=none;endFill=0;strokeWidth=1;fillColor=#f8cecc;" edge="1" parent="1" source="K-1nV7Vjv6MAB3hoQqZB-16" target="K-1nV7Vjv6MAB3hoQqZB-20">
          <mxGeometry relative="1" as="geometry" />
        </mxCell>
        <mxCell id="K-1nV7Vjv6MAB3hoQqZB-13" value="10" style="edgeLabel;html=1;align=center;verticalAlign=middle;resizable=0;points=[];" vertex="1" connectable="0" parent="K-1nV7Vjv6MAB3hoQqZB-12">
          <mxGeometry x="-0.0769" y="3" relative="1" as="geometry">
            <mxPoint as="offset" />
          </mxGeometry>
        </mxCell>
        <mxCell id="K-1nV7Vjv6MAB3hoQqZB-14" style="edgeStyle=none;shape=connector;rounded=0;orthogonalLoop=1;jettySize=auto;html=1;exitX=1;exitY=1;exitDx=0;exitDy=0;entryX=0;entryY=0;entryDx=0;entryDy=0;labelBackgroundColor=default;strokeColor=default;align=center;verticalAlign=middle;fontFamily=Times New Roman;fontSize=18;fontColor=default;endArrow=none;endFill=0;strokeWidth=1;" edge="1" parent="1" source="K-1nV7Vjv6MAB3hoQqZB-16" target="K-1nV7Vjv6MAB3hoQqZB-23">
          <mxGeometry relative="1" as="geometry" />
        </mxCell>
        <mxCell id="K-1nV7Vjv6MAB3hoQqZB-15" value="20" style="edgeLabel;html=1;align=center;verticalAlign=middle;resizable=0;points=[];" vertex="1" connectable="0" parent="K-1nV7Vjv6MAB3hoQqZB-14">
          <mxGeometry x="0.0572" y="-1" relative="1" as="geometry">
            <mxPoint as="offset" />
          </mxGeometry>
        </mxCell>
        <mxCell id="K-1nV7Vjv6MAB3hoQqZB-16" value="A" style="ellipse;whiteSpace=wrap;html=1;aspect=fixed;fontFamily=Times New Roman;fontSize=18;fillColor=#f8cecc;strokeColor=#b85450;" vertex="1" parent="1">
          <mxGeometry x="312.5" y="109" width="30" height="30" as="geometry" />
        </mxCell>
        <mxCell id="K-1nV7Vjv6MAB3hoQqZB-17" style="edgeStyle=none;shape=connector;rounded=0;orthogonalLoop=1;jettySize=auto;html=1;exitX=1;exitY=1;exitDx=0;exitDy=0;entryX=0;entryY=0;entryDx=0;entryDy=0;labelBackgroundColor=default;strokeColor=#b85450;align=center;verticalAlign=middle;fontFamily=Times New Roman;fontSize=18;fontColor=default;endArrow=none;endFill=0;strokeWidth=1;fillColor=#f8cecc;" edge="1" parent="1" source="K-1nV7Vjv6MAB3hoQqZB-19" target="K-1nV7Vjv6MAB3hoQqZB-20">
          <mxGeometry relative="1" as="geometry" />
        </mxCell>
        <mxCell id="K-1nV7Vjv6MAB3hoQqZB-18" value="10" style="edgeLabel;html=1;align=center;verticalAlign=middle;resizable=0;points=[];" vertex="1" connectable="0" parent="K-1nV7Vjv6MAB3hoQqZB-17">
          <mxGeometry x="-0.3062" y="-1" relative="1" as="geometry">
            <mxPoint as="offset" />
          </mxGeometry>
        </mxCell>
        <mxCell id="K-1nV7Vjv6MAB3hoQqZB-19" value="B" style="ellipse;whiteSpace=wrap;html=1;aspect=fixed;fontFamily=Times New Roman;fontSize=18;fillColor=#f8cecc;strokeColor=#b85450;" vertex="1" parent="1">
          <mxGeometry x="272.5" y="154" width="30" height="30" as="geometry" />
        </mxCell>
        <mxCell id="K-1nV7Vjv6MAB3hoQqZB-20" value="C" style="ellipse;whiteSpace=wrap;html=1;aspect=fixed;fontFamily=Times New Roman;fontSize=18;fillColor=#f8cecc;strokeColor=#b85450;" vertex="1" parent="1">
          <mxGeometry x="312.5" y="204" width="30" height="30" as="geometry" />
        </mxCell>
        <mxCell id="K-1nV7Vjv6MAB3hoQqZB-21" style="edgeStyle=none;shape=connector;rounded=0;orthogonalLoop=1;jettySize=auto;html=1;exitX=0;exitY=1;exitDx=0;exitDy=0;entryX=1;entryY=0;entryDx=0;entryDy=0;labelBackgroundColor=default;strokeColor=default;align=center;verticalAlign=middle;fontFamily=Times New Roman;fontSize=18;fontColor=default;endArrow=none;endFill=0;strokeWidth=1;" edge="1" parent="1" source="K-1nV7Vjv6MAB3hoQqZB-23" target="K-1nV7Vjv6MAB3hoQqZB-20">
          <mxGeometry relative="1" as="geometry" />
        </mxCell>
        <mxCell id="K-1nV7Vjv6MAB3hoQqZB-22" value="20" style="edgeLabel;html=1;align=center;verticalAlign=middle;resizable=0;points=[];" vertex="1" connectable="0" parent="K-1nV7Vjv6MAB3hoQqZB-21">
          <mxGeometry x="-0.0646" relative="1" as="geometry">
            <mxPoint as="offset" />
          </mxGeometry>
        </mxCell>
        <mxCell id="K-1nV7Vjv6MAB3hoQqZB-23" value="B" style="ellipse;whiteSpace=wrap;html=1;aspect=fixed;fontFamily=Times New Roman;fontSize=18;fillColor=none;strokeColor=#000000;gradientColor=#7ea6e0;" vertex="1" parent="1">
          <mxGeometry x="352.5" y="154" width="30" height="30" as="geometry" />
        </mxCell>
        <mxCell id="K-1nV7Vjv6MAB3hoQqZB-24" value="$$v_1$$" style="text;html=1;strokeColor=none;fillColor=none;align=center;verticalAlign=middle;whiteSpace=wrap;rounded=0;fontSize=18;fontFamily=Times New Roman;fontColor=default;" vertex="1" parent="1">
          <mxGeometry x="297.5" y="79" width="60" height="30" as="geometry" />
        </mxCell>
        <mxCell id="K-1nV7Vjv6MAB3hoQqZB-25" value="$$v_2$$" style="text;html=1;strokeColor=none;fillColor=none;align=center;verticalAlign=middle;whiteSpace=wrap;rounded=0;fontSize=18;fontFamily=Times New Roman;fontColor=default;" vertex="1" parent="1">
          <mxGeometry x="230" y="151" width="60" height="30" as="geometry" />
        </mxCell>
        <mxCell id="K-1nV7Vjv6MAB3hoQqZB-26" value="$$v_4$$" style="text;html=1;strokeColor=none;fillColor=none;align=center;verticalAlign=middle;whiteSpace=wrap;rounded=0;fontSize=18;fontFamily=Times New Roman;fontColor=default;" vertex="1" parent="1">
          <mxGeometry x="367.5" y="152" width="60" height="30" as="geometry" />
        </mxCell>
        <mxCell id="K-1nV7Vjv6MAB3hoQqZB-27" value="$$v_3$$" style="text;html=1;strokeColor=none;fillColor=none;align=center;verticalAlign=middle;whiteSpace=wrap;rounded=0;fontSize=18;fontFamily=Times New Roman;fontColor=default;" vertex="1" parent="1">
          <mxGeometry x="297.5" y="230" width="60" height="30" as="geometry" />
        </mxCell>
        <mxCell id="K-1nV7Vjv6MAB3hoQqZB-28" value="&lt;font style=&quot;font-size: 18px;&quot;&gt;(a) Query Graph Q&lt;/font&gt;" style="text;html=1;strokeColor=none;fillColor=none;align=center;verticalAlign=middle;whiteSpace=wrap;rounded=0;fontSize=18;fontFamily=Times New Roman;fontColor=default;" vertex="1" parent="1">
          <mxGeometry x="58.25" y="260" width="141" height="20" as="geometry" />
        </mxCell>
        <mxCell id="K-1nV7Vjv6MAB3hoQqZB-29" value="&lt;font style=&quot;font-size: 18px;&quot;&gt;(b) Data Graph G&lt;/font&gt;" style="text;html=1;strokeColor=none;fillColor=none;align=center;verticalAlign=middle;whiteSpace=wrap;rounded=0;fontSize=18;fontFamily=Times New Roman;fontColor=default;" vertex="1" parent="1">
          <mxGeometry x="248.25" y="260" width="151" height="20" as="geometry" />
        </mxCell>
        <mxCell id="K-1nV7Vjv6MAB3hoQqZB-30" value="" style="endArrow=classic;html=1;rounded=0;dashed=1;" edge="1" parent="1">
          <mxGeometry width="50" height="50" relative="1" as="geometry">
            <mxPoint x="140" y="170" as="sourcePoint" />
            <mxPoint x="310" y="120" as="targetPoint" />
          </mxGeometry>
        </mxCell>
        <mxCell id="K-1nV7Vjv6MAB3hoQqZB-31" value="" style="endArrow=classic;html=1;rounded=0;dashed=1;" edge="1" parent="1">
          <mxGeometry width="50" height="50" relative="1" as="geometry">
            <mxPoint x="170" y="250" as="sourcePoint" />
            <mxPoint x="310" y="220" as="targetPoint" />
          </mxGeometry>
        </mxCell>
        <mxCell id="K-1nV7Vjv6MAB3hoQqZB-32" value="&lt;font style=&quot;font-size: 18px;&quot;&gt;&lt;b style=&quot;font-size: 18px;&quot;&gt;$$u_3$$&lt;/b&gt;&lt;/font&gt;" style="text;html=1;strokeColor=none;fillColor=none;align=center;verticalAlign=middle;whiteSpace=wrap;rounded=0;fontSize=18;fontFamily=Times New Roman;fontColor=default;strokeWidth=1;" vertex="1" parent="1">
          <mxGeometry x="160" y="210" width="60" height="30" as="geometry" />
        </mxCell>
      </root>
    </mxGraphModel>
  </diagram>
</mxfile>
